<svg xmlns="http://www.w3.org/2000/svg" width="68.003" height="58.749" viewBox="0 0 68.003 58.749">
  <g id="left-quotes-sign" transform="translate(0 -34.571)">
    <g id="Group_18" data-name="Group 18" transform="translate(0 34.571)">
      <path id="Path_32" data-name="Path 32" d="M.014,77.131a16.231,16.231,0,1,0,10.945-15.3C14.6,40.935,30.9,27.461,15.792,38.551-.955,50.847,0,76.637.015,77.109.015,77.117.014,77.123.014,77.131Z" transform="translate(0 -34.571)" fill="#fff"/>
      <path id="Path_33" data-name="Path 33" d="M266.075,77.131a16.231,16.231,0,1,0,10.945-15.3c3.643-20.893,19.936-34.367,4.832-23.278-16.747,12.3-15.8,38.086-15.777,38.559C266.076,77.117,266.075,77.123,266.075,77.131Z" transform="translate(-230.448 -34.571)" fill="#fff"/>
    </g>
  </g>
</svg>
